<?xml version="1.0" encoding="utf-8"?>
<!-- Generator: Adobe Illustrator 18.0.0, SVG Export Plug-In . SVG Version: 6.00 Build 0)  -->
<!DOCTYPE svg PUBLIC "-//W3C//DTD SVG 1.1//EN" "http://www.w3.org/Graphics/SVG/1.1/DTD/svg11.dtd">
<svg version="1.1" id="Layer_1" xmlns="http://www.w3.org/2000/svg" xmlns:xlink="http://www.w3.org/1999/xlink" x="0px" y="0px"
	 viewBox="0 0 1062.7 1062.7" enable-background="new 0 0 1062.7 1062.7" xml:space="preserve">
<g>
	<g>
		<circle fill="#FFFFFF" cx="531.3" cy="531.3" r="477.4"/>
		<path fill="#002C77" d="M531.3,1013.7c-128.9,0-250-50.2-341.1-141.3C99.1,781.3,48.9,660.2,48.9,531.3s50.2-250,141.3-341.1
			C281.4,99.1,402.5,48.9,531.3,48.9s250,50.2,341.1,141.3s141.3,212.3,141.3,341.1s-50.2,250-141.3,341.1
			C781.3,963.6,660.2,1013.7,531.3,1013.7z M531.3,58.9c-126.2,0-244.8,49.1-334,138.4S58.9,405.2,58.9,531.3s49.1,244.8,138.4,334
			s207.9,138.4,334,138.4c126.2,0,244.8-49.1,334-138.4c89.2-89.2,138.4-207.9,138.4-334s-49.1-244.8-138.4-334
			C776.2,108.1,657.5,58.9,531.3,58.9z"/>
	</g>
	<g>
		<path fill="#EF5123" d="M282.8,220.4c-10.8-16.2-6.2-35.6,10.1-46.5c16.2-10.9,35.9-7.6,46.7,8.5c4.9,7.3,6.7,15.3,5.6,22.9
			l6.1,1.8l-4.4,14l-7.1-2.2c-2.6,3.7-6,7.1-10.1,9.9C313.3,239.7,293.6,236.5,282.8,220.4z M324.4,214.3l-8.8-2.6l4.4-14l9.1,2.7
			c-0.5-2.9-1.5-5.9-3.4-8.7c-5.8-8.7-15.9-11.6-24.7-5.7c-8.8,5.9-10,16.4-4.2,25.1c5.8,8.6,15.9,11.6,24.8,5.7
			C322.5,216,323.5,215.3,324.4,214.3z"/>
		<path fill="#EF5123" d="M351.7,183.1l-14.8-35l15.4-6.5l14.6,34.5c2.9,7,9.2,10.2,17.5,6.7c8.1-3.4,10.2-10.2,7.3-17.2L377.2,131
			l15.4-6.5l14.8,34.9c6.2,14.6,1.6,28.7-17.2,36.7C371.2,204.2,357.8,197.5,351.7,183.1z"/>
		<path fill="#EF5123" d="M424.8,181.7L410,119.5l45.6-10.8l3.3,14l-29.5,7l2.3,9.7l28.9-6.9l3.3,14l-28.9,6.9l2.5,10.5l29.5-7
			l3.3,14L424.8,181.7z"/>
		<path fill="#EF5123" d="M481.6,169.2l-4.7-63.7l46.7-3.5l1.1,14.3l-30.3,2.2l0.7,9.9l29.6-2.2l1.1,14.3l-29.6,2.2l0.8,10.8
			l30.3-2.2l1.1,14.3L481.6,169.2z"/>
		<path fill="#EF5123" d="M582.8,170l-23-39.6l-3.8,36.8l-16.4-1.7l6.6-63.5l16.9,1.8l22.1,37.6l3.6-35l16.5,1.7l-6.6,63.5
			L582.8,170z"/>
		<path fill="#EF5123" d="M609.4,164.8l11.8-9.4c3.1,5.7,8.9,11.4,17.2,13.8c5.4,1.6,9.4,0.4,10.2-2.5c2.4-8.4-34.3-11.8-27.4-35.4
			c3-10.3,14.4-17,30.1-12.4c9.8,2.9,17.5,8.3,22.4,15.8l-11.9,8.8c-3.9-5.7-10-9.8-16.1-11.6c-4.6-1.3-7.2-0.1-7.9,2.5
			c-2.3,7.8,34.1,12.2,27.4,35c-3.6,12.3-15.1,17.9-31.5,13.1C621.4,178.8,613.9,172.4,609.4,164.8z"/>
		<path fill="#EF5123" d="M687.8,195.9l12.1-7.7c1.1,2.8,2.9,5.8,6.3,7.7c4.5,2.5,9.1,1.1,11.7-3.6l20-36.7l14.5,7.9l-20.1,36.8
			c-7.6,13.9-19.5,15.7-31.7,9C694.8,206.2,690,201.8,687.8,195.9z"/>
		<path fill="#EF5123" d="M733.5,215.6l14.4-4.6c0.9,6.4,4.3,13.8,11.2,19c4.5,3.4,8.6,3.7,10.4,1.3c5.2-7-27.9-23.1-13.1-42.8
			c6.4-8.6,19.5-10.8,32.6-0.9c8.2,6.2,13.5,14,15.4,22.7l-14.3,4c-1.6-6.7-5.9-12.7-11-16.5c-3.8-2.9-6.7-2.6-8.3-0.5
			c-4.9,6.5,27.5,23.5,13.3,42.5c-7.7,10.3-20.4,11.4-34.1,1.1C739.7,233,734.9,224.3,733.5,215.6z"/>
		<path fill="#002C77" d="M820.7,255.8c3.1-2.8,8.1-2.6,11,0.5c2.8,3.1,2.6,8.1-0.5,11c-3.1,2.8-8.1,2.6-11-0.5
			C817.4,263.6,817.6,258.6,820.7,255.8z"/>
		<path fill="#002C77" d="M853.4,358.8l24.3-58.3L834.1,327l-4.1-6.8l54.7-33.1l4.2,7l-23.6,57.3l42.7-25.8l4.1,6.8l-54.7,33.1
			L853.4,358.8z"/>
		<path fill="#002C77" d="M862.6,377.1l59.3-23.8l15.6,38.8l-6.6,2.6l-12.6-31.5l-19.1,7.7l12.4,30.8l-6.6,2.6l-12.4-30.8l-20.4,8.2
			l12.6,31.5l-6.6,2.6L862.6,377.1z"/>
		<path fill="#002C77" d="M891.8,473.4l47.8-23.9l-53.3-3.7l-1.7-8.5l59.1-30.4l1.7,8.6L896,440l55.1,3.9l1.3,6.5L903,475.2l55,3.4
			l1.7,8.6l-66.2-5.3L891.8,473.4z"/>
		<path fill="#002C77" d="M895.5,552.8l26.9,1.9l38.5-22.6l-0.6,9.3l-31,17.7l28.2,21.9l-0.6,9.3l-35-27.6l-26.9-1.9L895.5,552.8z"
			/>
		<path fill="#002C77" d="M924.2,595.1c18.3,4.5,29.1,20.2,24.6,38.7c-4.5,18.3-21.3,27.4-39.6,22.9S880,636.4,884.5,618
			C889,599.6,905.8,590.6,924.2,595.1z M911,648.7c14.5,3.6,27.4-2.8,30.8-16.6c3.4-14-5.1-25.4-19.6-29
			c-14.4-3.5-27.4,2.7-30.8,16.6C888,633.6,896.6,645.1,911,648.7z"/>
		<path fill="#002C77" d="M859.9,690.8l29.8-4.8l5.1-11.7l-23.3-10.1l3.2-7.3l58.6,25.4L923,705.8c-4.6,10.7-14.8,15.4-25.6,10.7
			c-10.5-4.6-13.2-14.3-10.5-22.6l-30.8,5.5L859.9,690.8z M900.7,709c6.6,2.9,13.2,0.1,16.2-6.9l6.7-15.4l-22.4-9.7l-6.7,15.4
			C891.5,699.3,894.1,706.1,900.7,709z"/>
		<path fill="#002C77" d="M829.6,742.2l37.3-5l-2.7-9.3l-18.1-11.6l4.3-6.7l53.9,34.4l-4.3,6.7L872.1,733l12.7,41.6l-5.4,8.4
			l-11.3-38.8l-43.8,6.3L829.6,742.2z"/>
		<path fill="#002C77" d="M828.3,798.8c3.1,2.9,3.2,7.9,0.3,11c-2.9,3.1-7.9,3.2-11,0.3c-3.1-2.9-3.2-7.9-0.3-11
			C820.2,796.1,825.2,795.9,828.3,798.8z"/>
		<path fill="#EF5123" d="M785.9,837.5c11.1,16,6.9,35.5-9.2,46.7c-16,11.2-35.8,8.3-46.9-7.6c-5-7.2-7-15.2-6-22.8l-6.1-1.7
			l4.2-14.1l7.1,2c2.5-3.7,5.8-7.2,9.9-10.1C754.9,818.7,774.8,821.5,785.9,837.5z M744.4,844.3l8.8,2.5l-4.1,14.1l-9.1-2.5
			c0.5,2.9,1.6,5.9,3.6,8.6c6,8.6,16.2,11.3,24.8,5.3c8.7-6.1,9.7-16.6,3.7-25.1c-5.9-8.5-16.2-11.3-24.9-5.2
			C746.2,842.6,745.2,843.4,744.4,844.3z"/>
		<path fill="#EF5123" d="M717.6,876.1l15.5,34.7l-15.3,6.8l-15.2-34.2c-3.1-6.9-9.4-10.1-17.6-6.4c-8.1,3.6-10,10.4-7,17.4
			l15.2,34.2l-15.2,6.8l-15.4-34.7c-6.5-14.5-2.2-28.7,16.5-37C697.7,855.4,711.2,861.8,717.6,876.1z"/>
		<path fill="#EF5123" d="M644.7,878.9l16,61.9l-45.3,11.7l-3.6-13.9l29.4-7.6l-2.5-9.6l-28.8,7.4l-3.6-13.9l28.7-7.4l-2.7-10.5
			l-29.4,7.6l-3.6-13.9L644.7,878.9z"/>
		<path fill="#EF5123" d="M588,892.4l6,63.6l-46.6,4.4l-1.3-14.3l30.2-2.8l-0.9-9.9l-29.6,2.8l-1.3-14.3l29.6-2.8l-1-10.8l-30.2,2.8
			l-1.3-14.3L588,892.4z"/>
		<path fill="#EF5123" d="M486.9,893.7l23.8,39.1l3.1-36.8l16.4,1.4l-5.4,63.7l-16.9-1.4l-22.8-37.2l-3,35l-16.5-1.4l5.4-63.7
			L486.9,893.7z"/>
		<path fill="#EF5123" d="M460.4,899.4l-11.6,9.7c-3.2-5.6-9.1-11.2-17.5-13.5c-5.5-1.5-9.4-0.2-10.2,2.7
			c-2.3,8.4,34.5,11.1,28.1,34.9c-2.8,10.4-14.1,17.2-29.9,13c-9.9-2.7-17.7-8-22.7-15.4l11.8-9c4,5.7,10.2,9.6,16.3,11.3
			c4.6,1.2,7.2-0.1,7.9-2.6c2.1-7.9-34.3-11.6-28.1-34.5c3.3-12.4,14.7-18.1,31.3-13.7C448.1,885.5,455.8,891.8,460.4,899.4z"/>
		<path fill="#EF5123" d="M381.4,869.8l-11.9,7.9c-1.2-2.8-3-5.8-6.4-7.6c-4.6-2.4-9.1-1-11.6,3.8L332.2,911l-14.6-7.6l19.4-37.2
			c7.3-14,19.1-16.1,31.6-9.6C374.2,859.6,379.1,863.8,381.4,869.8z"/>
		<path fill="#EF5123" d="M335.4,851l-14.3,4.9c-1-6.4-4.5-13.7-11.6-18.8c-4.6-3.3-8.7-3.5-10.5-1.1c-5.1,7.1,28.4,22.6,13.9,42.6
			c-6.3,8.7-19.3,11.1-32.5,1.6c-8.3-6-13.7-13.7-15.8-22.4l14.2-4.3c1.8,6.7,6.2,12.6,11.3,16.3c3.9,2.8,6.7,2.5,8.3,0.3
			c4.8-6.6-28-22.9-14.1-42.2c7.5-10.4,20.2-11.8,34.1-1.7C328.8,833.7,333.7,842.2,335.4,851z"/>
		<path fill="#002C77" d="M244.6,809.7c-3.1,2.9-8.1,2.7-11-0.4c-2.9-3.1-2.7-8.1,0.4-11c3.1-2.9,8.1-2.7,11,0.4
			C247.9,801.8,247.7,806.8,244.6,809.7z"/>
		<path fill="#002C77" d="M211,706.9l-23.7,58.5l43.3-26.8l4.2,6.8L180.4,779l-4.3-6.9l23.1-57.5l-42.4,26.3l-4.2-6.8l54.3-33.6
			L211,706.9z"/>
		<path fill="#002C77" d="M201.6,688.7L142.5,713l-16-38.7l6.6-2.7L146,703l19-7.9l-12.7-30.7l6.6-2.7l12.7,30.7L192,684L179,652.7
			l6.6-2.7L201.6,688.7z"/>
		<path fill="#002C77" d="M171.4,592.6L123.8,617l53.3,3.2l1.8,8.4l-58.8,30.9l-1.8-8.6l49.2-24.8l-55.1-3.4l-1.4-6.5l49.1-25.3
			l-55-2.9l-1.8-8.6l66.3,4.7L171.4,592.6z"/>
		<path fill="#002C77" d="M167,513.3l-27-1.6l-38.3,22.9l0.6-9.3l30.8-18l-28.4-21.6l0.6-9.3l35.3,27.3l27,1.6L167,513.3z"/>
		<path fill="#002C77" d="M138,471.3c-18.4-4.3-29.3-20-24.9-38.4c4.3-18.4,21.1-27.6,39.4-23.3c18.4,4.3,29.2,20.1,24.9,38.4
			C173.1,466.5,156.3,475.6,138,471.3z M150.6,417.6c-14.5-3.4-27.4,3-30.6,16.9c-3.3,14,5.4,25.4,19.9,28.8
			c14.5,3.4,27.4-2.9,30.6-16.9C173.8,432.5,165,421,150.6,417.6z"/>
		<path fill="#002C77" d="M201.3,375l-29.7,5.1l-5,11.7l23.4,9.9l-3.1,7.3l-58.9-24.9l10-23.7c4.5-10.8,14.7-15.5,25.5-11
			c10.6,4.5,13.4,14.2,10.7,22.5l30.7-5.8L201.3,375z M160.4,357.2c-6.6-2.8-13.2,0-16.2,7l-6.5,15.4l22.5,9.5l6.5-15.4
			C169.7,366.8,167,360,160.4,357.2z"/>
		<path fill="#002C77" d="M231.1,323.3l-37.2,5.3l2.8,9.3l18.2,11.4l-4.2,6.7l-54.2-33.9l4.2-6.7l28,17.5l-13-41.5l5.3-8.4
			l11.6,38.7l43.8-6.8L231.1,323.3z"/>
		<path fill="#002C77" d="M231,267c-3.1-2.9-3.3-7.9-0.5-11c2.9-3.1,7.9-3.3,11-0.5c3.1,2.8,3.3,7.9,0.5,11
			C239.1,269.7,234.1,269.9,231,267z"/>
	</g>
	<g>
		<defs>
			<circle id="SVGID_1_" cx="531.3" cy="531.3" r="312.4"/>
		</defs>
		<use xlink:href="#SVGID_1_"  overflow="visible" fill="#EF5223"/>
		<clipPath id="SVGID_2_">
			<use xlink:href="#SVGID_1_"  overflow="visible"/>
		</clipPath>
		<path clip-path="url(#SVGID_2_)" fill="#002C77" d="M249.4,620.4l4-5h7.2v-34.8h3.2l5.5-47.8h2.5l6,48h2v43.8h9.8v-44.5l4.5-2.5
			v-23.8l3.8-2v-31.8l13-8.2v-52.5c0,0-1.2-7,8.2-6.8v-9.8l6.8-1.5v-5h2h2.8v5.8l6.8,0.5v11.2c0,0,5.8-1.5,7.8,3s0,42.2,0,42.2h32.8
			v-55.2l2.8-2v-26.8h3.5l6.5-25.2v-11.2c0,0,1-3,4,0v10.8l6.5,25.5l3.2,0.2v26.8l2.2,2v51h29.5v-59.5l8.8-4v-33.5l40,0.2v33.8h27.5
			v-43l6.2-4.2v-21l9.5-7v-30.5l3.8-3.8l1.8-14.8h3.2l1.6,14.2l2.6,4v30.2l9.5,7v21l6.8,4.5v50l16.2,0.2v-42.8h11.8v-14.5l30,0.5
			v13.5l12.8,0.2v25.2l21.2,0.2v53.2l24.8,0.2v-18.5l4.5-3v-11.8l9.5-4.2v-13.8l17.2,0.2v12.8l9.8,5v10.8l5,3.8v93l25.5,0.2v-79.2
			h34.2v155.8h12.5v-16.8l14.5,0.2v29h13.8l2.8,5v244.5h-574V620.4z"/>
		<g clip-path="url(#SVGID_2_)">
			<defs>
				<path id="SVGID_3_" d="M228.8,843.8c0-166.5,135-301.5,301.5-301.5s301.5,135,301.5,301.5c0,40.8-8.1,79.7-22.8,115.1
					c-45.2,109.4-153,186.4-278.8,186.4C363.8,1145.3,228.8,1010.3,228.8,843.8z"/>
			</defs>
			<clipPath id="SVGID_4_">
				<use xlink:href="#SVGID_3_"  overflow="visible"/>
			</clipPath>
			<path clip-path="url(#SVGID_4_)" fill="#FFFFFF" d="M235.3,843.8c0-162.9,132.1-295,295-295s295,132.1,295,295
				c0,39.9-7.9,77.9-22.3,112.6c-44.3,107.1-149.7,182.4-272.8,182.4C367.4,1138.8,235.3,1006.7,235.3,843.8z"/>
			<g clip-path="url(#SVGID_4_)">
				
					<rect x="441.3" y="610.1" transform="matrix(0.9317 0.3633 -0.3633 0.9317 265.4454 -183.5409)" fill="#002C77" width="358.6" height="7.6"/>
			</g>
			<g clip-path="url(#SVGID_4_)">
				
					<rect x="524.1" y="595.7" transform="matrix(0.9264 0.3764 -0.3764 0.9264 355.786 -136.7952)" fill="#002C77" width="7.6" height="492.5"/>
			</g>
			
				<line clip-path="url(#SVGID_4_)" fill="none" stroke="#000000" stroke-width="4" stroke-miterlimit="10" x1="273.9" y1="1006.6" x2="603.4" y2="1138.8"/>
			<g clip-path="url(#SVGID_4_)">
				<rect x="211.9" y="1019.1" transform="matrix(0.9259 0.3779 -0.3779 0.9259 421.4977 -102.4082)" width="519.7" height="7.6"/>
			</g>
			<g clip-path="url(#SVGID_4_)">
				
					<rect x="201.3" y="936.8" transform="matrix(0.9266 0.376 -0.376 0.9266 389.9008 -116.5677)" fill="#002C77" width="584.6" height="7.6"/>
			</g>
			<g clip-path="url(#SVGID_4_)">
				
					<rect x="216.2" y="845.2" transform="matrix(0.9224 0.3861 -0.3861 0.9224 369.0163 -139.0889)" fill="#002C77" width="629.1" height="7.6"/>
			</g>
			<g clip-path="url(#SVGID_4_)">
				
					<rect x="279.1" y="751.5" transform="matrix(0.9206 0.3905 -0.3905 0.9206 341.6949 -170.0212)" fill="#002C77" width="619.7" height="7.6"/>
			</g>
			<g clip-path="url(#SVGID_4_)">
				<path fill="#002C77" d="M830.3,770.5c-4.5-1.9-454.6-187.4-461.4-189.8l2-5.9c5.6,1.9,443.2,182.3,461.8,189.9L830.3,770.5z"/>
			</g>
			<g clip-path="url(#SVGID_4_)">
				<path fill="#002C77" d="M398.7,1059.9c-0.9-1.5-21.1-38.5-30.7-94c-9-51.3-10-128.5,35.8-205c25.2-42,67.6-99.8,127.1-136.6
					c35.9-22.1,60.7-26.1,61.7-26.2l1.1,7.5l-0.6-3.8l0.6,3.8c-1,0.1-98.1,16.6-183.4,159.2c-44.6,74.5-43.5,149.8-34.8,199.8
					c9.5,54.3,29.7,91.3,29.9,91.6L398.7,1059.9z"/>
			</g>
			<g clip-path="url(#SVGID_4_)">
				<path fill="#002C77" d="M343,1038.3c-1-0.9-25.1-23.7-42.8-70.5c-16.3-43-30.1-115.2-2.9-215.3l0.2-0.6
					c36-79.2,91.9-125.9,132.5-151.2c44-27.4,79-35.8,80.5-36.2l1.8,7.4c-0.3,0.1-35.5,8.6-78.5,35.4
					c-39.5,24.6-94,70.2-129.2,147.4c-26.5,97.9-13.2,168.4,2.8,210.3c17.2,45.2,40.7,67.5,40.9,67.7L343,1038.3z"/>
			</g>
			<g clip-path="url(#SVGID_4_)">
				<path fill="#002C77" d="M474.7,1090.2l-3.1-7c1.6-0.7,160.9-72.3,199-181.1c37.7-107.8-7.9-248.1-23-274.2l6.6-3.8
					c8.1,14,23.3,56.4,32,107.1c7.8,45.8,12.7,113-8.4,173.4c-11.3,32.4-40.8,82.1-116.6,135.4C516,1071.7,475.1,1090,474.7,1090.2z
					"/>
			</g>
			<g clip-path="url(#SVGID_4_)">
				<path d="M545.2,1119.3l-0.8-7.6c0.4,0,40.9-4.8,88.3-38.6c79.4-56.6,117-149.6,134.6-217.7l7.4,1.9
					c-17.9,69.5-56.4,164.4-137.9,222.3C587.7,1114.4,546.9,1119.1,545.2,1119.3z"/>
			</g>
			<path clip-path="url(#SVGID_4_)" fill="none" stroke="#000000" stroke-width="3.25" stroke-miterlimit="10" d="M805.4,903.3
				c0.5-11.2-13.5,13.5-13.5,13.5"/>
			<g clip-path="url(#SVGID_4_)">
				<path d="M805.4,889.4c-5.6-1.9-13,3.7-15.8,6.5c-2.8,2.8,7-13.5,7.9-26.5c0.9-13-17.2-2.8-18.6,7c-1.4,9.8-14,11.1-14.4,7.9
					c-0.5-3.2-20-7.9-18.1-16.3c1.9-8.4,13.5-7.4,7-16.3s-7.3-12.3-7.1-20.9s20.1,8.8,20.1,13c0,4.2,4.7,9.8,4.7,9.8
					s30.7-11.9,34.4-6.4c3.7,5.5,3.7,28.7,5.6,38.5C812.8,895.4,805.4,889.4,805.4,889.4z"/>
				<path d="M328.2,1058.6c0,0,19.3-11,28.6-6.8c9.3,4.2,5.6,6.8,5.6,6.8s9.3,3.6,9.3,0c0-3.6-4.2-16.1,0-32
					c4.2-15.8,14,33.6,14,33.6s0.5,6.9,4.7,6c4.2-0.9,14.9,2.8,14.9,6.5c0,3.7,10.2,9.8,10.2,9.8s10.6-2,15.4-6.5
					c4.8-4.5,22.8-7,22.8-7s15.4-7.4,15.8,7.9c0.5,15.4,0.5,26.1,2.3,25.6s8.8-2.8,13,0c4.2,2.8,5.1,11.6,12.6,13
					c7.4,1.4,20.9,1.9,23.7,0c2.8-1.9,30.7-7,30.7-7l25.5,26.5c0,0-72.1,53.5-194.4-8.9C260.4,1063.9,328.2,1058.6,328.2,1058.6z"/>
				<g id="SLuBJL_1_">
					<g>
						<path fill="#002C77" d="M511.5,549.8c1-0.1-1.7-1.6-3.1-0.3c-0.9,0.2-7.6,1.9-5.9,3c1.4,0.9,4.9,0.2,5.9,0.9
							c0.1,0.1,6.9,0.3,8.8-0.2c2.7-0.7,4.9-1.3,7.7-1.7c2.3-0.3,5.6-0.2,8,0.1c4.4,0.6,7,1.2,11,1.4c11.2,0.6,23.4,2.8,36.3,4.6
							c-8.8,5.5-9.1,12.6-0.9,18.6c2.6,2,6.1,3,8.3,5.3c2.3,2.3,3.5,5.6,5.3,8.4c1.2,1.8,2.5,3.5,3.8,5.2c1.6,2.2,3.2,4.3,5.8,7.8
							c-9.9,0.3-17.6-2.7-21.9-8.7c-3.1-4.3-6.1-4.5-9.8-5.2c-3.3-0.7-6.7-1.2-11.6-2c3.3,7.5,7.6,9.9,14.1,9.8
							c-7.4,0.9-14.1,4.7-21.9,2c-7.3-2.5-14.7-3.9-21.4,1.8c-1,0.8-2.6,0.8-4,1.1c-7.3,1.7-14.5,3.4-21.8,5.2
							c-1.1,0.3-2.9,0.7-3.1,1.4c-4.6,12.3-16.8,9.9-25.8,12.9c-10.7,3.6-11.9,4.4-13.4,16c-0.5,3.4-2.9,9-5.1,9.3
							c-5.5,0.8-4.9-5.2-5.7-8.8c-0.6-2.6,0.1-5.5,0.3-8.7c-8.8-3.2-17.3-8.7-27.4-3.1c-1.2,0.6-3.3,0.1-4.8-0.5
							c-6.5-2.2-12.5-1.6-19.3,0.3c-13.1,3.8-19.6,13.7-25.1,24.3c-5.3,10.1-1.5,14.4,9.6,14.8c6.6,0.2,11.2-1.8,15.1-6.8
							c4.8-6.1,11.1-3,17.4-3c1.5,11.6-11.6,14.2-13.3,24.3c2.2,0.4,4.3,1,6.4,1.1c14,0.8,15.2,8.8,9.6,17.2c-2.4,3.6-4,8.8-3.5,13
							c0.5,4.5,4.3,7.9,10,6.2c7-2.1,12.6-0.4,16.9,7.5c3.7-2.9,6.8-5.8,10.4-8.1c2.4-1.5,5.4-2.4,8.2-2.9c5.3-0.9,10.6-1.3,16.5-2
							c-0.4,1.2-0.9,2.6-1.7,5.3c3.6-0.6,6.6-1.1,9.8-1.6c8.2,7.1,16.8,14.1,29.9,14.1c4.6,0,9.8,6.3,13.6,10.7
							c5.8,6.6,10.4,14.2,15.9,21.2c1.2,1.5,3.5,2.4,5.5,3c18.3,5.7,26.9,16.7,26.1,35.4c-0.3,6.6,4,8.7,7.7,12
							c5.3,4.7,10.4,9.7,16,14.1c4.8,3.7,10.2,6.5,15.2,10c3.8,2.6,7.5,5.4,10.7,8.7c4,4.1,7.2,9.1,11.3,13.2
							c5.9,6,3.3,20.3-5.4,26.3c-6,4.2-12.7,7.4-18.3,12c-4,3.2-8,7.6-9.6,12.2c-4.5,13.3-14,22.2-24.6,30.2
							c-2.3,1.7-6.2,1.3-9.4,1.5c-7,0.5-14.1,0.3-21,1.4c-6.7,1-10,5.9-13.8,11.7c-4.6,7.2-12.5,12.4-19.3,17.9
							c-3.8,3.1-8.7,4.8-12.6,7.8c-5.6,4.2-11,5.1-17,1.1c-1.1-0.7-2.5-0.9-4.3-1.5c-0.2,1.9-0.5,3.2-0.4,4.6
							c0.2,10.4-3.6,14.3-14,13.4c-5.9-0.5-11.7-2.5-15,5.2c-0.7,1.5-5.3,1.3-8.3,1.9c0,5.9-4.3,11.8-15.2,19.8
							c4.5,6.1,3.2,10.4-3.1,15.3c-9.8,7.5-9.2,10.4,0.5,22.9c-3.4,5.9-7.9,3.6-12,1.2c-11.5-6.7-16.1-17.6-17.1-30.1
							c-0.3-3.4-4-8,1.4-11c-2.9-6.1,2.9-8.4,5.2-12.3c1.7-2.9,2.1-6.7,2.9-9.8c-1.4,0.5-2.6,1-3.9,1.5c-0.3-1-1.3-2.3-0.9-3
							c4.8-10.9,2.5-23.9,10.4-33.8c7.7-9.6,6.9-21.9,10.6-32.7c4.1-11.8,7.9-23.6,12.6-35.1c5-12.2,4.7-25.7-1.9-31.9
							c-4-3.7-8-7.3-12-11c-4.2-3.8-5.6-8.1-6.6-14c-2.2-13.2-5.8-26.3-10.6-38.8c-4.7-12.1-5.3-13.2,4.6-21.1
							c-2.5-6.7,0.9-16.3,7.1-20.1c4.8-3,11.2-4.8,14.2-9.1c3.6-5.2,5.3-12.3,5.9-18.7c0.4-4.1-2.5-8.5-3.9-12.8
							c-1.8,0.6-2.5,0.6-2.7,0.9c-5,8.1-5.3,8.6-13.1,2.9c-6.9-5.1-14.7-9.7-15.3-20.3c-0.2-3-4.3-6.7-7.5-8.5
							c-6.3-3.7-13.3-6-17.4-12.9c-1-1.6-4.4-2.7-6.7-2.6c-9.5,0.5-28.8-10.2-32.6-19.1c-0.7-1.7,0.1-4.3,0.7-6.3
							c0.7-2.4,2.8-4.8,2.7-7.1c-0.6-7.6-1.9-15.1-4.5-23c-1.9,6.8-3.8,13.6-5.7,20.4c-1-0.1-2-0.2-3-0.3
							c-0.2-5.3-0.5-10.6-0.6-13.7c3.6-8.9,6.6-15.9,9.4-23c1.1-2.6,1.3-5.8,3-7.9c11.5-13.5,27.2-20.2,43.2-26.4
							C423.5,555.6,465.7,548.4,511.5,549.8z"/>
						<path fill="#002C77" d="M730.2,658c2.8,1.6,7,1.7,9.8,3.3c0.5-0.4,7,11.8,20.6,25.5c4.6,6.2,5.2,15.9,2.3,21.6
							c1.2,0.9,2.4,2.6,3.7,2.6c8.9,0.3,13.4,6.2,16.9,13.1c29.8,58.4,41.3,120.1,33.1,185.3c-8.7,69.5-37.5,129.6-85.4,180.6
							c-6.5,7-9.4,7.2-13,0.7c-1.1-2-0.7-6.4,0.8-7.9c12.8-12.4,20.8-28.1,29.8-43.1c5.9-9.9,10.1-20.8,15.5-30.9
							c4.4-8.3,9.8-16.1,14.3-24.4c4.7-8.6,10-17.2,12.9-26.4c3-9.6,3.1-20,4.8-30c1.5-9.1,3.9-18,4.7-27.1c0.5-5.6-1-11.3-1.8-17
							c-1.4-10-5.8-16.1-17.2-16.9c-5.1-0.3-10.4-4.1-14.7-7.5c-3.5-2.8-6.2-7.2-8-11.4c-7-16.4-14.1-32.9-19.9-49.8
							c-1.9-5.4,0.1-12.1,0.2-18.2c0.1-7.9-0.1-15.8-0.1-23.7c0-3.6-0.4-7.4,0.5-10.8c1.3-4.7,2.3-10.8,5.7-13.4
							c6.8-5.2,6.1-12.1,8.5-18.7c3-8.3-0.6-11.3-4.4-16.8c-5.9-8.4-9.9-18.1-14.7-27.2C735.6,669.2,729.7,658.4,730.2,658z"/>
						<path fill="#002C77" d="M540.2,1139.8c3.2-1.5,6.8-2.4,9.5-4.5c6-4.6,11.6-4.5,17.5-0.1c2.8,2.1,5.7,3.9,10.6,7.3
							c-14.7,5.8-27.7,11-41.2,16.3c4.4,8.4,8.7,16.6,13.3,25.5c-22.4,3.6-43.8,4.5-65.3,3.3c-34.6-1.8-68.2-8.8-100-22.3
							c-10.2-4.3-18.8-13.1-27.1-20.9c-2.6-2.5-1.8-8.6-2.6-13.5c7.6-0.2,13.9-0.4,20.8-0.6c-0.3-2-0.5-3.9-1-7.4
							c8.7,1.3,16.6,2.4,24.5,3.6c2.3,0.4,4.6,1.3,6.9,1.5c6.2,0.5,7.7-1.3,6.9-8.4c4-0.7,8.1-1.4,12.1-2.1
							c-0.1-6.7,13.8-12.8,30.8-12.4c-1.7,4-2.3,8-4.7,10.2c-6,5.6-4.9,13-6.4,19.8c-0.5,2.4-1.1,4.8-1.7,7.2
							c10.4,12.7,25,12.6,39.5,12.8c0.8,0,1.8-0.6,2.5-1.2c7-6,14-12.1,21.1-18c2.2-1.8,4.5-3.7,7.1-4.5c8.8-2.8,17.6-5.7,26.6-7.3
							c2.8-0.5,6.4,2.7,9.6,4.2c-1.4,2.2-2.6,4.5-4.4,6.4c-1.6,1.7-3.7,2.9-5.6,4.3c-10.7,4.8-21.4,9.6-32,14.5
							c0.4,0.8,0.8,1.6,1.1,2.3C519.9,1151.9,530.9,1147.8,540.2,1139.8z"/>
						<path fill="#002C77" d="M600,1132.8c-2.4,0.6-5.2,0.5-7,1.9c-7.5,5.6-14.6,7-22-0.2c-2.3-2.2-5.3-3.6-9.2-6.2
							c4.4-3.1,8-5.7,11.5-8.1c7.9-5.6,15.4-11.7,23.7-16.5c9.7-5.6,19.9-10.8,30.5-14.3c3.3-1.1,9,3.6,12.9,6.6
							c3.3,2.5,4,6.3,0.1,9.7c-1.1,0.9-1.9,2.1-2.8,3.1c-3.4,2.1-6.8,4.2-10.2,6.3c-9.2,5.9-18.4,11.9-27.7,17.8L600,1132.8z"/>
						<path fill="#002C77" d="M721.1,1056.6c-3.8,3.9-8,7.5-11.2,11.8c-11.2,14.9-25.1,26.8-39.8,38.1c-1.8,1.4-5.8,2.1-7.6,1
							c-3.4-1.8-6-5.1-8.6-8c-0.3-0.3,1.8-2.9,3.1-4.2c15-15,30.3-29.8,45.1-45c7-7.2,8.2-7.5,14.7,0.5c1.5,1.8,2.6,3.9,3.9,5.9
							C720.7,1056.7,721.1,1056.6,721.1,1056.6z"/>
						<path fill="#002C77" d="M647.3,1096.7c-2.9-3.5-6.4-6.2-7.4-9.7c-0.6-1.8,2.6-5.7,5-7.4c8.6-6.2,17.1-12.8,26.6-17.6
							c6.8-3.5,13.5-6.1,17.9-12.9c0.9-1.4,4.4-1,6.8-1.4c-0.4,2.2,0.1,5.3-1.2,6.6c-9.8,9.8-20,19.3-30,29
							c-3.4,3.3-6.5,6.8-10.1,9.8C652.9,1094.6,650.4,1095.2,647.3,1096.7z"/>
						<path fill="#002C77" d="M627.4,1115.1c3.4-2.1,6.8-4.2,10.2-6.3c5.2-3.6,9.7-4.2,12.8,2.7c0.6,1.4,2.2,2.3,3.4,3.4l-0.1-0.2
							c-2.5,6.9-8.8,9.7-14.7,12.7c-4.1,2.1-9.2,2.4-13.2,4.6c-6.8,3.9-13.8,4.7-21.2,3.1c-0.2-0.1-0.5-0.3-0.7-0.4
							c1.9-1.5,3.9-3.1,5.8-4.7C615.6,1125,621.5,1120.1,627.4,1115.1z"/>
						<path fill="#002C77" d="M732.5,1017.7c5.2,7,1.9,11.7-0.6,16.8c-2.4,4.8-4.3,9.9-6.6,15.3c-2-1.1-4.3-2.4-6.5-3.8
							c-5.6-3.5-6.7-7.1-2.2-12.7C721,1027.8,726.7,1023.3,732.5,1017.7z"/>
						<path fill="#002C77" d="M430.3,659.4c0.5-1,3-0.8,4.4-0.7c6.7,0.4,27.4,18.5,34.2,17.9c-1.6,2.2-3.8,5.3-5.3,3.5
							c-3.1-3.6-9.3-6.4-12.2-8.8c-6.3-5.1-16.4-10.8-16.4-10.8S433.3,659.4,430.3,659.4z"/>
						<path fill="#002C77" d="M603.7,568.5c10,3.4,19.9,6.8,30.3,10.4c-0.7,5.7-3,8.9-8.7,5.9c-7.9-4.2-15.5-8.9-23.2-13.5
							C602.6,570.4,603.1,569.5,603.7,568.5z"/>
						<path fill="#002C77" d="M469.2,684.5c0.6-4.6-2.7-6.8,3.8-5.6c9.3,6.1,15.1,4.1,20.3,10.1
							C482.4,695.7,478.4,686.7,469.2,684.5z"/>
						<path fill="#002C77" d="M603.9,1134.6c0.2,0.1,0.5,0.3,0.7,0.4c1.6,1.2,3.2,2.4,4.8,3.7c-0.1,0.8-0.1,1.6-0.2,2.4
							c-7.5,1.2-15.1,2.5-22.6,3.7c-0.2-0.7-0.5-1.3-0.7-2c4.7-3.4,9.4-6.7,14.2-10.1l-0.2,0.1
							C601.1,1133.5,602.5,1134.1,603.9,1134.6z"/>
						<path fill="#002C77" d="M492.6,1138.5c-7.8,11-11.6,11.8-28.2,6.7c1-1.8,2-3.5,3.4-5.8c3.3,7.7,8.1,6.7,13.5,3.9
							C485,1141.4,488.8,1140,492.6,1138.5z"/>
						<path fill="#002C77" d="M653.8,1114.9c-1.4-3.9-2.9-7.7-4.3-11.6c0.3-0.4,0.7-0.8,1-1.2c2.9,2.7,6,5.2,8.7,8
							c0.7,0.8,0.6,3.6,0.3,3.7c-1.9,0.5-3.9,0.6-5.8,0.8C653.6,1114.6,653.8,1114.9,653.8,1114.9z"/>
						<path fill="#002C77" d="M552.2,1120.2c2.6,0,5.2-0.1,7.9-0.1c-0.1,1.5-0.2,4.2-0.5,4.2c-2.6,0.2-5.2,0-7.8-0.1
							C552,1122.9,552.1,1121.5,552.2,1120.2z"/>
						<path fill="#002C77" d="M721.1,1056.6c0,0-0.4,0.1-0.4,0.1C720.7,1056.7,721.1,1056.6,721.1,1056.6z"/>
						<path fill="#002C77" d="M540.2,1139.8c-9.2,8-20.3,12.1-31.4,16c-0.4-0.8-0.8-1.6-1.1-2.3c10.7-4.8,21.4-9.6,32-14.5
							C539.8,1139.3,540,1139.5,540.2,1139.8z"/>
						<path fill="#002C77" d="M603.9,1134.6c-1.4-0.6-2.8-1.1-4.1-1.7c9.2-6,18.4-11.9,27.7-17.8c-5.9,5-11.8,9.9-17.8,14.9
							C607.8,1131.6,605.8,1133.1,603.9,1134.6z"/>
					</g>
					<g id="_x34_dPQQA.tif">
						<g>
							<path fill="#002C77" d="M782.2,696.2c-11.7-3.1-20-23.8-26-26.4c-7.2-3.2-13.3-9-19.7-13.4c-3.2-12.5-8.8-13.8-22.3-20.3
								c-9.8-4.7-43.6-6.1-47.4,4.2c-0.3,0.9-1.2,1.5-1.4,2.4c-4,13.9-5.2,15.9-14.5,13.7c-16.3-4-18.7-1.3-19.8-18.9
								c-0.1-1.8,0-3.6,0-6.5c3.7-0.3,7.7-1.8,10.6-0.6c4.9,1.9,7.8-0.3,8.6-3.8c0.4-2-2.7-5.2-4.8-7.3c-2.3-2.2-5.3-3.7-8.3-5.6
								c2-2.3,3.7-4.3,6.2-7.1c-5.5-0.4-9.9-0.7-14.2-0.9c-2.7-5.3-5.1-10.1-9-17.7c6.8,4.2,11.2,7.1,15.7,9.7
								c9.4,5.3,12.2,3.7,12.4-7c0-1.8,0.3-3.6,0.4-5.4c-1.1-0.6-28.2-24.5-30.3-27.9c10.2,3.2,18.6,5.1,26.5,8.4
								c32.5,13.6,61.5,33.1,85.8,58.2c13,13.4,24.7,27.7,34.9,43"/>
							<path fill="#002C77" d="M842.3,739.9c3.6,27.3-0.3,41.6-5.3,69.5c-0.6,3.3-3.8,6.1-5.3,9.3c-1.2,2.7-3.2,7.5-2.2,8.4
								c5.3,4.6,1.2,8.5-0.1,12.5c-2.2,7-4.4,14-6.9,20.9c-5.2,14.7-10.5,28.9-22.1,40.9c-13.1,13.6-23,30.2-35.4,44.6
								c-6.2,7.2-14.8,12.2-22.4,18.1c-4.4,3.4-8.7,7-13.4,9.6c-12.8,7.2-26.3,13.4-38.9,20.9c-11.1,6.7-21.7,6.3-32.4,1.3
								c10.8-14.2,22.3-27.8,31.8-42.6c5.1-7.9,6.5-18.1,15-24.1c1.8-1.3,3.1-4.1,5-4.6c12.9-3.2,15.8-14.5,19.2-24.6
								c2.4-7.1,1.2-15.3,2.8-22.7c1-4.8,3.5-9.7,6.6-13.5c5.1-6.5,9-12.2,0.2-18.6c-1-0.8-1.6-2.3-2.2-3.5
								c-7.8-15.5-7.8-15.4-23.9-14.4c-2.1,0.1-5.2-0.2-6.3-1.5c-4.7-6-10.9-7.5-18-8.9c-4.4-0.8-8.4-5.3-11.8-8.8
								c-3.1-3.2-5.3-7.3-7.7-11.2c-1.2-1.9-3.2-4.5-2.6-6.1c4-11.7-4.1-21.2-5.5-31.9c-1.2-9.1,1.5-15.5,7.6-20.3
								c6.3-4.9,8.9-9.7,7.1-17.6c-1.3-5.6,0.1-9.7,5.6-14c9.7-7.4,17.9-16.7,31.2-17.5c2.1-0.1,5.6-1.7,5.8-3
								c1.8-10.7,13.3-8.9,18.5-16.3c4.2,3.2,7.7,6,11.3,8.8c14.1-6.3,24.5,4.5,36.1,8.8c2.1,0.8,3.5,7.7,2.7,11.2
								c-1.2,5.5,0.7,8.5,4.1,12.2c5.5,6,10.3,12.6,16.1,19.8c2-3.4,3.2-5.5,4.9-8.4c6,7,11.6,13.5,17.4,20.3c3.1-6,3.7-0.4,3.2-5.2
								"/>
							<path fill="#002C77" d="M592.4,567.5c-4.1-0.9-8.2-1.8-11.9-2.6c-0.5-0.1-1-0.4-1.2-0.9c-4.6-8.8,4.9-14.2,4.7-22
								c0-0.9-0.7-1.7-1.6-1.8c0,0-0.1,0-0.1,0c-2.1-0.3-2.1-3.3,0-3.6c5.8-0.9,11.3-1.6,16.9-2c9.6-0.6,19.3-0.2,28.9-0.1
								c1,0,1.7,0.8,1.8,1.7c0.8,11.8-7.9,14.7-16.8,18.1c-7.4,2.9-14.3,7.1-21.5,10.8C591.8,565.9,592.1,566.7,592.4,567.5z"/>
							<path fill="#002C77" d="M477.5,1091.3c-0.1-5.4-9.2-12.2,3.1-16.4c5.6,11.6,15.7,15.6,27.3,18.2c15,3.3,29.2,0.6,44-2.2
								c19.1-3.5,38.7-4.2,59.1-6.2C588.7,1096.3,525.8,1103.7,477.5,1091.3z"/>
							
								<path fill="#002C77" stroke="#000000" stroke-width="2" stroke-linecap="round" stroke-linejoin="round" stroke-miterlimit="10" d="
								M613.1,1085.7c-25.6,3.7-51.2,8-76.9,11c-14.6,1.7-29.1-1.7-43.3-5.4c-5.7-1.5-11.4-3.4-14.2-9.6c-0.5-1.1-3.5-1-5.4-1.5"/>
							
								<path fill="#002C77" stroke="#000000" stroke-width="2" stroke-linecap="round" stroke-linejoin="round" stroke-miterlimit="10" d="
								M417.4,1035.4c7.4,7.8,11.9,19.3,25.2,19.6"/>
							
								<path fill="#002C77" stroke="#000000" stroke-width="2" stroke-linecap="round" stroke-linejoin="round" stroke-miterlimit="10" d="
								M504.1,923.5c-5.6-0.5-11.2-0.9-16.8-1.4"/>
						</g>
					</g>
				</g>
			</g>
			<g clip-path="url(#SVGID_4_)">
				<path fill="#EF5123" d="M530.4,1143.8c-165.4,0-300-134.6-300-300s134.6-300,300-300c165.4,0,300,134.6,300,300
					c0,39.7-7.6,78.2-22.6,114.6C761.2,1071,652.3,1143.8,530.4,1143.8z M530.4,553.7c-159.9,0-290,130.1-290,290s130.1,290,290,290
					c117.9,0,223.1-70.4,268.1-179.3c14.5-35.1,21.9-72.4,21.9-110.7C820.4,683.8,690.3,553.7,530.4,553.7z"/>
			</g>
		</g>
	</g>
	<g>
		<path fill="#002C77" d="M531.3,848.8c-175,0-317.4-142.4-317.4-317.4s142.4-317.4,317.4-317.4s317.4,142.4,317.4,317.4
			S706.4,848.8,531.3,848.8z M531.3,223.9c-169.5,0-307.4,137.9-307.4,307.4s137.9,307.4,307.4,307.4s307.4-137.9,307.4-307.4
			S700.9,223.9,531.3,223.9z"/>
	</g>
</g>
</svg>
